<svg xmlns="http://www.w3.org/2000/svg" xmlns:xlink="http://www.w3.org/1999/xlink" fill="none" version="1.1" width="268" height="40" viewBox="0 0 268 40"><defs><clipPath id="master_svg0_6112_103648"><rect x="16" y="8.5" width="18" height="22" rx="0"/></clipPath><clipPath id="master_svg1_6112_103633"><rect x="154" y="8.5" width="17" height="22" rx="0"/></clipPath></defs><g><g><g><rect x="0" y="0" width="130" height="40" rx="20" fill="#343434" fill-opacity="1"/></g><g><g><g><path d="M40.49,24.5Q40.378,24.5,40.287,24.416Q40.196,24.332,40.196,24.206Q40.196,24.15,40.224,24.08L43.598,15.05Q43.64,14.91,43.759,14.805Q43.878,14.7,44.088,14.7L45.614,14.7Q45.824,14.7,45.936,14.805Q46.048,14.91,46.104,15.05L49.478,24.08Q49.492000000000004,24.15,49.492000000000004,24.206Q49.492000000000004,24.332,49.408,24.416Q49.324,24.5,49.212,24.5L47.994,24.5Q47.798,24.5,47.707,24.409Q47.616,24.317999999999998,47.588,24.234L46.93,22.526L42.772,22.526L42.114,24.234Q42.086,24.317999999999998,41.995,24.409Q41.903999999999996,24.5,41.708,24.5L40.49,24.5ZM43.262,20.916L46.44,20.916L44.844,16.59L43.262,20.916ZM50.976,27.16Q50.836,27.16,50.738,27.062Q50.64,26.964,50.64,26.824L50.64,17.556Q50.64,17.416,50.738,17.317999999999998Q50.836,17.22,50.976,17.22L52.082,17.22Q52.236000000000004,17.22,52.327,17.317999999999998Q52.418,17.416,52.418,17.556L52.418,18.116Q52.754,17.668,53.3,17.374Q53.846000000000004,17.08,54.658,17.08Q55.4,17.08,55.946,17.317999999999998Q56.492000000000004,17.556,56.856,17.997Q57.22,18.438,57.416,19.04Q57.611999999999995,19.642,57.64,20.369999999999997Q57.653999999999996,20.608,57.653999999999996,20.86Q57.653999999999996,21.112000000000002,57.64,21.364Q57.626000000000005,22.064,57.43,22.659Q57.234,23.253999999999998,56.863,23.695Q56.492000000000004,24.136,55.946,24.387999999999998Q55.4,24.64,54.658,24.64Q53.902,24.64,53.37,24.367Q52.838,24.094,52.502,23.646L52.502,26.824Q52.502,26.964,52.411,27.062Q52.32,27.16,52.166,27.16L50.976,27.16ZM54.14,23.142Q54.742000000000004,23.142,55.078,22.883Q55.414,22.624000000000002,55.568,22.204Q55.722,21.784,55.75,21.28Q55.763999999999996,20.86,55.75,20.439999999999998Q55.722,19.936,55.568,19.516Q55.414,19.096,55.078,18.837Q54.742000000000004,18.578,54.14,18.578Q53.566,18.578,53.209,18.844Q52.852000000000004,19.11,52.691,19.523Q52.53,19.936,52.502,20.369999999999997Q52.488,20.622,52.488,20.902Q52.488,21.182000000000002,52.502,21.448Q52.516,21.868000000000002,52.698,22.253Q52.88,22.637999999999998,53.230000000000004,22.89Q53.58,23.142,54.14,23.142ZM59.572,27.16Q59.432,27.16,59.334,27.062Q59.236000000000004,26.964,59.236000000000004,26.824L59.236000000000004,17.556Q59.236000000000004,17.416,59.334,17.317999999999998Q59.432,17.22,59.572,17.22L60.678,17.22Q60.832,17.22,60.923,17.317999999999998Q61.013999999999996,17.416,61.013999999999996,17.556L61.013999999999996,18.116Q61.35,17.668,61.896,17.374Q62.442,17.08,63.254000000000005,17.08Q63.995999999999995,17.08,64.542,17.317999999999998Q65.088,17.556,65.452,17.997Q65.816,18.438,66.012,19.04Q66.208,19.642,66.236,20.369999999999997Q66.25,20.608,66.25,20.86Q66.25,21.112000000000002,66.236,21.364Q66.22200000000001,22.064,66.026,22.659Q65.83,23.253999999999998,65.459,23.695Q65.088,24.136,64.542,24.387999999999998Q63.995999999999995,24.64,63.254000000000005,24.64Q62.498000000000005,24.64,61.966,24.367Q61.434,24.094,61.098,23.646L61.098,26.824Q61.098,26.964,61.007000000000005,27.062Q60.916,27.16,60.762,27.16L59.572,27.16ZM62.736000000000004,23.142Q63.338,23.142,63.674,22.883Q64.01,22.624000000000002,64.164,22.204Q64.318,21.784,64.346,21.28Q64.36,20.86,64.346,20.439999999999998Q64.318,19.936,64.164,19.516Q64.01,19.096,63.674,18.837Q63.338,18.578,62.736000000000004,18.578Q62.162,18.578,61.805,18.844Q61.448,19.11,61.287,19.523Q61.126000000000005,19.936,61.098,20.369999999999997Q61.084,20.622,61.084,20.902Q61.084,21.182000000000002,61.098,21.448Q61.111999999999995,21.868000000000002,61.294,22.253Q61.476,22.637999999999998,61.826,22.89Q62.176,23.142,62.736000000000004,23.142ZM74.594,24.64Q73.292,24.64,72.417,24.255000000000003Q71.542,23.869999999999997,71.087,23.247Q70.632,22.624000000000002,70.604,21.938000000000002Q70.604,21.811999999999998,70.688,21.728Q70.77199999999999,21.644,70.898,21.644L72.144,21.644Q72.326,21.644,72.417,21.721Q72.50800000000001,21.798000000000002,72.578,21.91Q72.662,22.176000000000002,72.9,22.435000000000002Q73.138,22.694000000000003,73.551,22.862000000000002Q73.964,23.03,74.594,23.03Q75.602,23.03,76.09899999999999,22.694000000000003Q76.596,22.358,76.596,21.784Q76.596,21.378,76.33,21.133Q76.064,20.887999999999998,75.511,20.685000000000002Q74.958,20.482,74.048,20.258Q72.99799999999999,20.006,72.291,19.649Q71.584,19.292,71.227,18.746000000000002Q70.87,18.2,70.87,17.36Q70.87,16.548000000000002,71.311,15.918Q71.752,15.288,72.571,14.924Q73.39,14.559999999999999,74.524,14.559999999999999Q75.434,14.559999999999999,76.134,14.805Q76.834,15.05,77.29599999999999,15.449Q77.75800000000001,15.847999999999999,78.003,16.303Q78.24799999999999,16.758,78.262,17.192Q78.262,17.304000000000002,78.185,17.395Q78.108,17.486,77.968,17.486L76.666,17.486Q76.554,17.486,76.44200000000001,17.43Q76.33,17.374,76.25999999999999,17.22Q76.176,16.786,75.714,16.478Q75.25200000000001,16.17,74.524,16.17Q73.768,16.17,73.306,16.45Q72.844,16.73,72.844,17.317999999999998Q72.844,17.71,73.075,17.969Q73.306,18.228,73.81700000000001,18.424Q74.328,18.619999999999997,75.168,18.844Q76.358,19.11,77.114,19.46Q77.87,19.810000000000002,78.22,20.349Q78.57,20.887999999999998,78.57,21.714Q78.57,22.637999999999998,78.07300000000001,23.289Q77.576,23.939999999999998,76.68,24.29Q75.78399999999999,24.64,74.594,24.64ZM83.30199999999999,24.5Q82.462,24.5,81.888,24.206Q81.314,23.912,81.03399999999999,23.331Q80.75399999999999,22.75,80.75399999999999,21.881999999999998L80.75399999999999,18.704L79.648,18.704Q79.50800000000001,18.704,79.41,18.606Q79.312,18.508,79.312,18.354L79.312,17.556Q79.312,17.416,79.41,17.317999999999998Q79.50800000000001,17.22,79.648,17.22L80.75399999999999,17.22L80.75399999999999,14.896Q80.75399999999999,14.756,80.845,14.658000000000001Q80.936,14.559999999999999,81.09,14.559999999999999L82.22399999999999,14.559999999999999Q82.364,14.559999999999999,82.462,14.658000000000001Q82.56,14.756,82.56,14.896L82.56,17.22L84.31,17.22Q84.45,17.22,84.548,17.317999999999998Q84.646,17.416,84.646,17.556L84.646,18.354Q84.646,18.508,84.548,18.606Q84.45,18.704,84.31,18.704L82.56,18.704L82.56,21.742Q82.56,22.316000000000003,82.763,22.637999999999998Q82.96600000000001,22.96,83.47,22.96L84.436,22.96Q84.576,22.96,84.674,23.058Q84.77199999999999,23.156,84.77199999999999,23.296L84.77199999999999,24.164Q84.77199999999999,24.304000000000002,84.674,24.402Q84.576,24.5,84.436,24.5L83.30199999999999,24.5ZM89.238,24.64Q88.118,24.64,87.35499999999999,24.247999999999998Q86.592,23.856,86.193,23.142Q85.794,22.428,85.738,21.476Q85.72399999999999,21.224,85.72399999999999,20.86Q85.72399999999999,20.496000000000002,85.738,20.244Q85.794,19.278,86.207,18.570999999999998Q86.62,17.864,87.38300000000001,17.472Q88.146,17.08,89.238,17.08Q90.33,17.08,91.093,17.472Q91.856,17.864,92.269,18.570999999999998Q92.682,19.278,92.738,20.244Q92.75200000000001,20.496000000000002,92.75200000000001,20.86Q92.75200000000001,21.224,92.738,21.476Q92.682,22.428,92.283,23.142Q91.884,23.856,91.12100000000001,24.247999999999998Q90.358,24.64,89.238,24.64ZM89.238,23.253999999999998Q89.97999999999999,23.253999999999998,90.386,22.785Q90.792,22.316000000000003,90.834,21.406Q90.848,21.195999999999998,90.848,20.86Q90.848,20.524,90.834,20.314Q90.792,19.404,90.386,18.935000000000002Q89.97999999999999,18.466,89.238,18.466Q88.49600000000001,18.466,88.09,18.935000000000002Q87.684,19.404,87.642,20.314Q87.628,20.524,87.628,20.86Q87.628,21.195999999999998,87.642,21.406Q87.684,22.316000000000003,88.09,22.785Q88.49600000000001,23.253999999999998,89.238,23.253999999999998ZM94.642,24.5Q94.50200000000001,24.5,94.404,24.402Q94.306,24.304000000000002,94.306,24.164L94.306,17.57Q94.306,17.416,94.404,17.317999999999998Q94.50200000000001,17.22,94.642,17.22L95.77600000000001,17.22Q95.916,17.22,96.021,17.317999999999998Q96.126,17.416,96.126,17.57L96.126,18.144Q96.44800000000001,17.695999999999998,96.959,17.458Q97.47,17.22,98.142,17.22L98.71600000000001,17.22Q98.87,17.22,98.961,17.317999999999998Q99.05199999999999,17.416,99.05199999999999,17.556L99.05199999999999,18.564Q99.05199999999999,18.704,98.961,18.802Q98.87,18.9,98.71600000000001,18.9L97.624,18.9Q96.952,18.9,96.581,19.271Q96.21000000000001,19.642,96.21000000000001,20.314L96.21000000000001,24.164Q96.21000000000001,24.304000000000002,96.112,24.402Q96.01400000000001,24.5,95.86,24.5L94.642,24.5ZM103.182,24.64Q101.628,24.64,100.718,23.744Q99.80799999999999,22.848,99.738,21.195999999999998Q99.72399999999999,21.055999999999997,99.72399999999999,20.839Q99.72399999999999,20.622,99.738,20.496000000000002Q99.794,19.432000000000002,100.221,18.669Q100.648,17.906,101.404,17.493000000000002Q102.16,17.08,103.182,17.08Q104.316,17.08,105.086,17.549Q105.856,18.018,106.248,18.851Q106.64,19.683999999999997,106.64,20.776L106.64,21.07Q106.64,21.21,106.542,21.308Q106.444,21.406,106.29,21.406L101.642,21.406Q101.642,21.406,101.642,21.448Q101.642,21.490000000000002,101.642,21.518Q101.656,22.008,101.831,22.421Q102.006,22.834,102.34899999999999,23.086Q102.69200000000001,23.338,103.168,23.338Q103.56,23.338,103.826,23.219Q104.092,23.1,104.26,22.945999999999998Q104.428,22.792,104.498,22.694000000000003Q104.624,22.526,104.701,22.491Q104.778,22.456,104.932,22.456L106.136,22.456Q106.276,22.456,106.367,22.54Q106.458,22.624000000000002,106.444,22.75Q106.43,22.974,106.213,23.296Q105.996,23.618000000000002,105.59,23.926000000000002Q105.184,24.234,104.575,24.436999999999998Q103.96600000000001,24.64,103.182,24.64ZM101.642,20.23L104.736,20.23L104.736,20.188000000000002Q104.736,19.642,104.554,19.229Q104.372,18.816000000000003,104.022,18.585Q103.672,18.354,103.182,18.354Q102.69200000000001,18.354,102.342,18.585Q101.99199999999999,18.816000000000003,101.81700000000001,19.229Q101.642,19.642,101.642,20.188000000000002L101.642,20.23Z" fill="#FFFFFF" fill-opacity="1"/></g></g><g clip-path="url(#master_svg0_6112_103648)"><g><path d="M33.4273,15.9998C33.299,16.0988,31.034599999999998,17.3682,31.034599999999998,20.1908C31.034599999999998,23.4556,33.916,24.6106,34.0022,24.6392C33.9889,24.7096,33.5445,26.221,32.483000000000004,27.761C31.5366,29.1162,30.5482,30.4692,29.0445,30.4692C27.5408,30.4692,27.1538,29.6002,25.41794,29.6002C23.72629,29.6002,23.12481,30.4978,21.74939,30.4978C20.37396,30.4978,19.41425,29.2438,18.31081,27.7038C17.03268,25.8954,16,23.086,16,20.419600000000003C16,16.1428,18.795090000000002,13.874600000000001,21.54595,13.874600000000001C23.00762,13.874600000000001,24.226039999999998,14.8294,25.143729999999998,14.8294C26.017200000000003,14.8294,27.3794,13.8174,29.042299999999997,13.8174C29.6725,13.8174,31.9369,13.874600000000001,33.4273,15.9998ZM28.2528,12.0068C28.9405,11.195,29.427,10.0686,29.427,8.9422C29.427,8.786,29.413800000000002,8.6276,29.384999999999998,8.499999790192C28.2661,8.5417998,26.9349,9.2414,26.132199999999997,10.1676C25.50196,10.8804,24.91376,12.0068,24.91376,13.1486C24.91376,13.3202,24.942500000000003,13.4918,24.95577,13.546800000000001C25.02653,13.559999999999999,25.14152,13.5754,25.25651,13.5754C26.2604,13.5754,27.5231,12.906600000000001,28.2528,12.0068Z" fill="#FFFFFF" fill-opacity="1"/></g></g></g></g><g><g><rect x="138" y="0" width="130" height="40" rx="20" fill="#343434" fill-opacity="1"/></g><g><g><g><path d="M181.9,24.64Q180.612,24.64,179.709,24.192Q178.806,23.744,178.309,22.897Q177.812,22.05,177.77,20.874000000000002Q177.756,20.272,177.756,19.579Q177.756,18.886,177.77,18.27Q177.812,17.108,178.309,16.282Q178.806,15.456,179.723,15.008Q180.64,14.559999999999999,181.9,14.559999999999999Q182.922,14.559999999999999,183.692,14.833Q184.462,15.106,184.973,15.533000000000001Q185.484,15.96,185.743,16.45Q186.002,16.94,186.016,17.36Q186.03,17.486,185.946,17.57Q185.862,17.654,185.722,17.654L184.28,17.654Q184.14,17.654,184.07,17.598Q184,17.542,183.944,17.43Q183.832,17.136,183.594,16.849Q183.356,16.562,182.95,16.366Q182.544,16.17,181.9,16.17Q180.948,16.17,180.381,16.674Q179.814,17.178,179.772,18.34Q179.73,19.558,179.772,20.804000000000002Q179.814,21.994,180.395,22.512Q180.976,23.03,181.928,23.03Q182.558,23.03,183.055,22.805999999999997Q183.552,22.582,183.839,22.106Q184.126,21.630000000000003,184.126,20.887999999999998L184.126,20.454L182.418,20.454Q182.278,20.454,182.18,20.356Q182.082,20.258,182.082,20.104L182.082,19.362000000000002Q182.082,19.208,182.18,19.11Q182.278,19.012,182.418,19.012L185.764,19.012Q185.918,19.012,186.00900000000001,19.11Q186.1,19.208,186.1,19.362000000000002L186.1,20.832Q186.1,22.008,185.589,22.862000000000002Q185.078,23.716,184.133,24.178Q183.188,24.64,181.9,24.64ZM190.944,24.64Q189.824,24.64,189.061,24.247999999999998Q188.298,23.856,187.899,23.142Q187.5,22.428,187.444,21.476Q187.43,21.224,187.43,20.86Q187.43,20.496000000000002,187.444,20.244Q187.5,19.278,187.913,18.570999999999998Q188.326,17.864,189.089,17.472Q189.852,17.08,190.944,17.08Q192.036,17.08,192.799,17.472Q193.562,17.864,193.975,18.570999999999998Q194.388,19.278,194.444,20.244Q194.458,20.496000000000002,194.458,20.86Q194.458,21.224,194.444,21.476Q194.388,22.428,193.989,23.142Q193.59,23.856,192.827,24.247999999999998Q192.064,24.64,190.944,24.64ZM190.944,23.253999999999998Q191.686,23.253999999999998,192.092,22.785Q192.498,22.316000000000003,192.54,21.406Q192.554,21.195999999999998,192.554,20.86Q192.554,20.524,192.54,20.314Q192.498,19.404,192.092,18.935000000000002Q191.686,18.466,190.944,18.466Q190.202,18.466,189.796,18.935000000000002Q189.39,19.404,189.348,20.314Q189.334,20.524,189.334,20.86Q189.334,21.195999999999998,189.348,21.406Q189.39,22.316000000000003,189.796,22.785Q190.202,23.253999999999998,190.944,23.253999999999998ZM199.232,24.64Q198.112,24.64,197.349,24.247999999999998Q196.586,23.856,196.187,23.142Q195.788,22.428,195.732,21.476Q195.718,21.224,195.718,20.86Q195.718,20.496000000000002,195.732,20.244Q195.788,19.278,196.201,18.570999999999998Q196.614,17.864,197.377,17.472Q198.14,17.08,199.232,17.08Q200.324,17.08,201.087,17.472Q201.85,17.864,202.263,18.570999999999998Q202.676,19.278,202.732,20.244Q202.746,20.496000000000002,202.746,20.86Q202.746,21.224,202.732,21.476Q202.676,22.428,202.277,23.142Q201.878,23.856,201.115,24.247999999999998Q200.352,24.64,199.232,24.64ZM199.232,23.253999999999998Q199.974,23.253999999999998,200.38,22.785Q200.786,22.316000000000003,200.828,21.406Q200.84199999999998,21.195999999999998,200.84199999999998,20.86Q200.84199999999998,20.524,200.828,20.314Q200.786,19.404,200.38,18.935000000000002Q199.974,18.466,199.232,18.466Q198.49,18.466,198.084,18.935000000000002Q197.678,19.404,197.636,20.314Q197.622,20.524,197.622,20.86Q197.622,21.195999999999998,197.636,21.406Q197.678,22.316000000000003,198.084,22.785Q198.49,23.253999999999998,199.232,23.253999999999998ZM207.59,27.58Q206.568,27.58,205.91,27.314Q205.252,27.048,204.874,26.67Q204.496,26.292,204.335,25.921Q204.174,25.55,204.16,25.34Q204.14600000000002,25.2,204.251,25.095Q204.356,24.990000000000002,204.496,24.990000000000002L205.714,24.990000000000002Q205.85399999999998,24.990000000000002,205.938,25.053Q206.022,25.116,206.078,25.284Q206.162,25.466,206.302,25.676000000000002Q206.442,25.886,206.72899999999998,26.033Q207.016,26.18,207.52,26.18Q208.052,26.18,208.416,26.026Q208.78,25.872,208.969,25.508Q209.15800000000002,25.144,209.15800000000002,24.5L209.15800000000002,23.548000000000002Q208.822,23.954,208.297,24.206Q207.772,24.458,207.002,24.458Q206.26,24.458,205.707,24.213Q205.154,23.968,204.79,23.527Q204.426,23.086,204.237,22.484Q204.048,21.881999999999998,204.02,21.154Q204.006,20.776,204.02,20.398Q204.048,19.698,204.237,19.096Q204.426,18.494,204.79,18.039Q205.154,17.584,205.707,17.332Q206.26,17.08,207.002,17.08Q207.8,17.08,208.346,17.381Q208.892,17.682000000000002,209.242,18.13L209.242,17.57Q209.242,17.416,209.34,17.317999999999998Q209.438,17.22,209.578,17.22L210.712,17.22Q210.852,17.22,210.95,17.317999999999998Q211.048,17.416,211.048,17.57L211.062,24.317999999999998Q211.062,25.326,210.684,26.054000000000002Q210.30599999999998,26.782,209.543,27.181Q208.78,27.58,207.59,27.58ZM207.52,22.974Q208.094,22.974,208.444,22.722Q208.794,22.47,208.962,22.064Q209.13,21.658,209.15800000000002,21.238Q209.172,21.055999999999997,209.172,20.776Q209.172,20.496000000000002,209.15800000000002,20.328Q209.13,19.894,208.962,19.494999999999997Q208.794,19.096,208.444,18.837Q208.094,18.578,207.52,18.578Q206.946,18.578,206.596,18.837Q206.246,19.096,206.099,19.516Q205.952,19.936,205.924,20.439999999999998Q205.89600000000002,20.776,205.924,21.125999999999998Q205.952,21.616,206.099,22.043Q206.246,22.47,206.596,22.722Q206.946,22.974,207.52,22.974ZM213.274,24.5Q213.13400000000001,24.5,213.036,24.402Q212.938,24.304000000000002,212.938,24.164L212.938,14.896Q212.938,14.756,213.036,14.658000000000001Q213.13400000000001,14.559999999999999,213.274,14.559999999999999L214.436,14.559999999999999Q214.576,14.559999999999999,214.674,14.658000000000001Q214.772,14.756,214.772,14.896L214.772,24.164Q214.772,24.304000000000002,214.674,24.402Q214.576,24.5,214.436,24.5L213.274,24.5ZM219.77,24.64Q218.216,24.64,217.30599999999998,23.744Q216.39600000000002,22.848,216.326,21.195999999999998Q216.312,21.055999999999997,216.312,20.839Q216.312,20.622,216.326,20.496000000000002Q216.382,19.432000000000002,216.809,18.669Q217.236,17.906,217.992,17.493000000000002Q218.748,17.08,219.77,17.08Q220.904,17.08,221.674,17.549Q222.44400000000002,18.018,222.836,18.851Q223.228,19.683999999999997,223.228,20.776L223.228,21.07Q223.228,21.21,223.13,21.308Q223.03199999999998,21.406,222.878,21.406L218.23,21.406Q218.23,21.406,218.23,21.448Q218.23,21.490000000000002,218.23,21.518Q218.244,22.008,218.41899999999998,22.421Q218.594,22.834,218.937,23.086Q219.28,23.338,219.756,23.338Q220.148,23.338,220.414,23.219Q220.68,23.1,220.848,22.945999999999998Q221.016,22.792,221.086,22.694000000000003Q221.212,22.526,221.289,22.491Q221.36599999999999,22.456,221.52,22.456L222.724,22.456Q222.864,22.456,222.95499999999998,22.54Q223.046,22.624000000000002,223.03199999999998,22.75Q223.018,22.974,222.801,23.296Q222.584,23.618000000000002,222.178,23.926000000000002Q221.772,24.234,221.163,24.436999999999998Q220.554,24.64,219.77,24.64ZM218.23,20.23L221.324,20.23L221.324,20.188000000000002Q221.324,19.642,221.142,19.229Q220.96,18.816000000000003,220.61,18.585Q220.26,18.354,219.77,18.354Q219.28,18.354,218.93,18.585Q218.57999999999998,18.816000000000003,218.405,19.229Q218.23,19.642,218.23,20.188000000000002L218.23,20.23ZM228.422,24.5Q228.28199999999998,24.5,228.184,24.402Q228.086,24.304000000000002,228.086,24.164L228.086,15.05Q228.086,14.896,228.184,14.798Q228.28199999999998,14.7,228.422,14.7L232.174,14.7Q233.266,14.7,234.078,15.043Q234.89,15.386,235.338,16.079Q235.786,16.772,235.786,17.808Q235.786,18.858,235.338,19.537Q234.89,20.216,234.078,20.552Q233.266,20.887999999999998,232.174,20.887999999999998L230.088,20.887999999999998L230.088,24.164Q230.088,24.304000000000002,229.997,24.402Q229.906,24.5,229.752,24.5L228.422,24.5ZM230.06,19.334L232.10399999999998,19.334Q232.916,19.334,233.35,18.948999999999998Q233.784,18.564,233.784,17.808Q233.784,17.108,233.378,16.681Q232.972,16.253999999999998,232.10399999999998,16.253999999999998L230.06,16.253999999999998L230.06,19.334ZM237.494,24.5Q237.35399999999998,24.5,237.256,24.402Q237.15800000000002,24.304000000000002,237.15800000000002,24.164L237.15800000000002,14.896Q237.15800000000002,14.756,237.256,14.658000000000001Q237.35399999999998,14.559999999999999,237.494,14.559999999999999L238.656,14.559999999999999Q238.796,14.559999999999999,238.894,14.658000000000001Q238.992,14.756,238.992,14.896L238.992,24.164Q238.992,24.304000000000002,238.894,24.402Q238.796,24.5,238.656,24.5L237.494,24.5ZM242.96800000000002,24.64Q242.24,24.64,241.652,24.353Q241.064,24.066000000000003,240.721,23.583Q240.378,23.1,240.378,22.497999999999998Q240.378,21.518,241.176,20.936999999999998Q241.974,20.356,243.262,20.16L245.18,19.880000000000003L245.18,19.586Q245.18,18.997999999999998,244.886,18.676000000000002Q244.59199999999998,18.354,243.878,18.354Q243.374,18.354,243.059,18.557000000000002Q242.744,18.759999999999998,242.59,19.096Q242.478,19.278,242.268,19.278L241.162,19.278Q241.00799999999998,19.278,240.93099999999998,19.194000000000003Q240.85399999999998,19.11,240.85399999999998,18.97Q240.868,18.746000000000002,241.043,18.424Q241.21800000000002,18.102,241.575,17.801000000000002Q241.93200000000002,17.5,242.506,17.29Q243.07999999999998,17.08,243.892,17.08Q244.774,17.08,245.38299999999998,17.297Q245.99200000000002,17.514,246.356,17.878Q246.72,18.242,246.888,18.732Q247.05599999999998,19.222,247.05599999999998,19.768L247.05599999999998,24.164Q247.05599999999998,24.304000000000002,246.958,24.402Q246.86,24.5,246.72,24.5L245.586,24.5Q245.43200000000002,24.5,245.341,24.402Q245.25,24.304000000000002,245.25,24.164L245.25,23.618000000000002Q245.06799999999998,23.869999999999997,244.76,24.108Q244.452,24.346,244.011,24.493000000000002Q243.57,24.64,242.96800000000002,24.64ZM243.44400000000002,23.310000000000002Q243.934,23.310000000000002,244.333,23.1Q244.732,22.89,244.963,22.448999999999998Q245.19400000000002,22.008,245.19400000000002,21.336L245.19400000000002,21.042L243.79399999999998,21.266Q242.96800000000002,21.392,242.562,21.672Q242.156,21.951999999999998,242.156,22.358Q242.156,22.666,242.345,22.883Q242.534,23.1,242.828,23.205Q243.122,23.310000000000002,243.44400000000002,23.310000000000002ZM249.96800000000002,27.16Q249.856,27.16,249.772,27.076Q249.688,26.992,249.688,26.88Q249.688,26.824,249.695,26.775Q249.702,26.726,249.744,26.656L250.836,24.066000000000003L248.148,17.724Q248.09199999999998,17.584,248.09199999999998,17.528Q248.106,17.402,248.19,17.311Q248.274,17.22,248.4,17.22L249.534,17.22Q249.702,17.22,249.786,17.304000000000002Q249.87,17.387999999999998,249.912,17.486L251.774,22.064L253.692,17.486Q253.73399999999998,17.374,253.81799999999998,17.297Q253.902,17.22,254.07,17.22L255.19,17.22Q255.30200000000002,17.22,255.393,17.304000000000002Q255.48399999999998,17.387999999999998,255.48399999999998,17.5Q255.48399999999998,17.584,255.428,17.724L251.466,26.894Q251.41,27.006,251.326,27.083Q251.24200000000002,27.16,251.074,27.16L249.96800000000002,27.16Z" fill="#FFFFFF" fill-opacity="1"/></g></g><g clip-path="url(#master_svg1_6112_103633)"><g><g><g><path d="M161.93907353515624,19.57431125640869L154.07037353515625,27.92410125640869C154.44879253515626,29.28255125640869,155.99018353515626,29.91521125640869,157.19557353515626,29.206861256408693L166.04937353515623,24.099591256408694L161.93907353515624,19.57431125640869Z" fill="#EA4335" fill-opacity="1"/></g><g><path d="M169.89574421875,18.15466375L166.06693421875,15.93359375L161.75732421875,19.76404375L166.08452421875,24.08741375L169.88401421875,21.89009375C170.57009421875,21.52627375,171.00002421875,20.80674375,171.00002421875,20.02238375C171.00002421875,19.23801375,170.57009421875,18.51849375,169.88401421875,18.15466375L169.89574421875,18.15466375Z" fill="#FBBC04" fill-opacity="1"/></g><g><path d="M154.0703841,12.07958984375C154.0228194,12.25768484375,153.99915298,12.44145584375,154.0000231491,12.62594884375L154.0000231491,27.377689843749998C154.000499126,27.56208984375,154.0241427,27.74568984375,154.0703841,27.92398984375L162.2088,19.78799984375L154.0703841,12.07958984375Z" fill="#4285F4" fill-opacity="1"/></g><g><path d="M161.99771353515624,20.0019L166.06687353515625,15.933900000000001L157.22489353515624,10.802877C156.89225353515624,10.605559,156.51392353515624,10.5010536,156.12843353515626,10.50000428815C155.17169353515624,10.49808404,154.33058453515625,11.14126,154.07037353515625,12.07376L161.99771353515624,20.0019Z" fill="#34A853" fill-opacity="1"/></g></g></g></g></g></g></g></svg>